<svg xmlns="http://www.w3.org/2000/svg" viewBox="0 0 200 200" fill="none">
  <circle cx="100" cy="100" r="90" fill="white" opacity="0.15"/>
  <!-- Airplane arriving -->
  <path d="M140 50l-25 15h15l-8 15 15-8 15 8-8-15h15l-25-15z" fill="white" opacity="0.8"/>
  <path d="M135 45l5 5" stroke="white" stroke-width="2" stroke-linecap="round"/>
  
  <!-- Canadian maple leaf -->
  <path d="M100 90l-4 10-10-3 5 9-9 4 10 3-3 10 8-7 8 7-3-10 10-3-9-4 5-9-10 3-4-10z" fill="white"/>
  <path d="M100 90l-4 10-10-3 5 9-9 4 10 3-3 10 8-7 8 7-3-10 10-3-9-4 5-9-10 3-4-10z" stroke="white" stroke-width="1.5"/>
  
  <!-- Family/People group -->
  <circle cx="75" cy="145" r="10" fill="white"/>
  <path d="M75 158c-10 0-18 6-18 12h36c0-6-8-12-18-12z" fill="white"/>
  
  <circle cx="100" cy="140" r="12" fill="white"/>
  <path d="M100 155c-12 0-20 7-20 14h40c0-7-8-14-20-14z" fill="white"/>
  
  <circle cx="125" cy="145" r="10" fill="white"/>
  <path d="M125 158c-10 0-18 6-18 12h36c0-6-8-12-18-12z" fill="white"/>
  
  <!-- Welcome/Heart symbol -->
  <path d="M100 60c0-6-5-10-10-10-6 0-10 4-10 10 0 8 10 15 10 15s10-7 10-15zm10 0c0-6 5-10 10-10 6 0 10 4 10 10 0 8-10 15-10 15s-10-7-10-15z" fill="#ff9a9e" opacity="0.7"/>
</svg>
